<?xml version="1.0" standalone="no"?>
<!DOCTYPE svg PUBLIC "-//W3C//DTD SVG 20010904//EN"
 "http://www.w3.org/TR/2001/REC-SVG-20010904/DTD/svg10.dtd">
<svg version="1.0" xmlns="http://www.w3.org/2000/svg"
 width="1920.000000pt" height="1920.000000pt" viewBox="0 0 1920.000000 1920.000000"
 preserveAspectRatio="xMidYMid meet">
<metadata>
Created by potrace 1.14, written by Peter Selinger 2001-2017
</metadata>
<g transform="translate(0.000000,1920.000000) scale(0.100000,-0.100000)"
fill="#000000" stroke="none">
<path d="M3203 18132 c-100 -35 -171 -114 -193 -216 -8 -35 -10 -250 -8 -696
l3 -645 28 -57 c16 -32 47 -73 69 -93 44 -37 132 -75 173 -75 l25 0 0 -900 0
-900 -25 0 c-41 0 -129 -38 -173 -75 -22 -20 -53 -61 -69 -93 l-28 -57 -3
-495 -3 -496 -112 -18 c-1121 -176 -2011 -1023 -2232 -2126 -42 -207 -50 -296
-50 -545 1 -179 5 -269 18 -355 79 -512 266 -945 574 -1330 88 -109 244 -272
334 -346 l70 -59 -388 -5 c-368 -5 -390 -6 -434 -26 -66 -31 -114 -78 -146
-142 l-28 -57 0 -675 0 -675 28 -57 c34 -69 91 -121 164 -148 46 -17 78 -20
228 -20 l175 0 0 -1200 0 -1200 -175 0 c-150 0 -182 -3 -228 -20 -73 -27 -130
-79 -164 -148 l-28 -57 0 -675 0 -675 28 -57 c32 -64 80 -111 146 -142 l46
-21 5287 -3 5287 -2 3 -638 3 -637 28 -57 c64 -131 210 -195 351 -154 48 14
134 74 579 408 287 216 529 392 537 392 8 0 250 -176 537 -392 445 -334 531
-394 579 -408 141 -41 287 23 351 154 l28 57 3 638 3 637 667 0 c683 0 800 5
1022 41 1480 243 2557 1558 2507 3059 -26 758 -329 1466 -858 2000 -418 421
-888 686 -1466 825 l-72 17 -3 516 -3 517 -28 57 c-32 64 -80 111 -146 142
-41 19 -68 21 -233 24 l-188 4 0 899 0 899 175 0 c150 0 182 3 228 20 73 27
130 79 164 148 l28 57 3 496 3 496 87 12 c449 62 933 273 1302 567 47 37 146
129 221 203 420 421 673 928 766 1538 21 139 24 555 5 693 -94 666 -387 1232
-863 1666 -394 360 -858 581 -1419 677 l-125 21 -6460 3 c-6186 2 -6462 2
-6512 -15z m12919 -1809 c332 -95 573 -341 655 -670 26 -103 23 -323 -6 -428
-92 -341 -374 -600 -716 -660 -78 -13 -768 -15 -6121 -15 l-6034 0 0 900 0
900 6073 -2 6072 -3 77 -22z m-12884 -3590 c-10 -2 -28 -2 -40 0 -13 2 -5 4
17 4 22 1 32 -1 23 -4z m9235 0 c-1684 -2 -4442 -2 -6130 0 -1687 1 -309 2
3062 2 3372 0 4752 -1 3068 -2z m3112 -15 c3 -13 4 -144 3 -293 l-3 -270 -3
283 -2 283 -22 9 -23 9 22 0 c15 1 24 -6 28 -21z m-12498 6 c-3 -3 -12 -4 -19
-1 -8 3 -5 6 6 6 11 1 17 -2 13 -5z m-67 -14 c0 -5 -7 -10 -15 -10 -8 0 -15 5
-15 10 0 6 7 10 15 10 8 0 15 -4 15 -10z m12537 -412 c-1 -79 -3 -15 -3 142 0
157 2 221 3 143 2 -79 2 -207 0 -285z m-12612 402 c-28 -12 -37 -12 -30 0 3 6
16 10 28 9 21 0 21 -1 2 -9z m-79 -22 c-45 -10 -66 -23 -23 -16 15 3 27 1 27
-3 0 -15 -45 -10 -66 6 -16 13 -16 14 -1 9 9 -3 17 -1 17 4 0 12 47 20 70 13
8 -3 -3 -9 -24 -13z m114 -2 c0 -8 -6 -16 -13 -19 -8 -3 -13 3 -13 14 0 11 6
19 13 19 7 0 13 -6 13 -14z m-204 -15 c-3 -5 -18 -11 -33 -14 -26 -5 -26 -4
-8 9 21 15 49 19 41 5z m131 -7 c-3 -3 -12 -4 -19 -1 -8 3 -5 6 6 6 11 1 17
-2 13 -5z m-276 -31 c-11 -5 -11 -7 0 -15 9 -5 5 -6 -13 -2 -18 4 -28 2 -28
-5 0 -6 -5 -11 -11 -11 -5 0 -7 5 -4 11 7 11 43 28 60 28 6 -1 4 -3 -4 -6z
m-71 -33 c0 -5 -7 -7 -15 -4 -8 4 -15 8 -15 10 0 2 7 4 15 4 8 0 15 -4 15 -10z
m66 -9 c-3 -5 -16 -11 -28 -14 -22 -6 -22 -5 -4 8 22 17 40 20 32 6z m-93 -8
c-7 -2 -21 -2 -30 0 -10 3 -4 5 12 5 17 0 24 -2 18 -5z m-82 -24 c-18 -11 -35
-18 -38 -15 -5 5 46 35 62 36 6 0 -5 -9 -24 -21z m25 -46 c-7 -7 -26 7 -26 19
0 6 6 6 15 -2 9 -7 13 -15 11 -17z m-86 1 c16 -10 18 -13 5 -8 -11 4 -28 7
-37 8 -9 0 -14 4 -12 8 7 11 15 10 44 -8z m-51 -13 c10 -7 7 -9 -12 -8 -14 1
-23 5 -20 10 6 9 15 9 32 -2z m-29 -28 c0 -3 -6 -3 -13 0 -7 3 -22 -2 -32 -10
-19 -15 -19 -15 3 -10 25 6 21 -8 -7 -22 -14 -8 -17 -6 -16 11 2 25 31 49 51
41 8 -3 14 -7 14 -10z m-109 -48 c-18 -8 -36 -15 -40 -15 -13 1 45 29 59 29 8
0 0 -6 -19 -14z m89 -5 c-8 -5 -19 -10 -25 -10 -5 0 -3 5 5 10 8 5 20 10 25
10 6 0 3 -5 -5 -10z m-134 -37 c-3 -20 -22 -28 -31 -14 -4 7 1 8 12 4 15 -6
16 -4 6 9 -7 8 -10 18 -7 21 11 10 22 -2 20 -20z m-33 -37 c8 3 17 1 20 -3 7
-11 -33 -11 -50 0 -14 9 -21 -1 -18 -28 1 -14 -5 -21 -16 -21 -17 0 -17 1 -1
20 16 18 16 19 -3 13 -17 -6 -17 -4 4 13 17 15 27 17 36 10 7 -6 19 -8 28 -4z
m-93 -40 c0 -2 -7 -7 -16 -10 -8 -3 -12 -2 -9 4 6 10 25 14 25 6z m-62 -48
c-14 -18 -31 -34 -39 -36 -8 -3 2 12 20 32 43 45 52 47 19 4z m76 0 c-4 -7 -9
-6 -14 1 -3 7 -15 9 -26 5 -18 -6 -18 -6 1 9 21 16 51 5 39 -15z m-47 -50 c-3
-7 -5 -2 -5 12 0 14 2 19 5 13 2 -7 2 -19 0 -25z m-17 18 c0 -3 -4 -8 -10 -11
-5 -3 -10 -1 -10 4 0 6 5 11 10 11 6 0 10 -2 10 -4z m-48 -21 c21 0 17 -15 -5
-15 -26 0 -42 12 -30 23 3 4 11 3 17 -1 6 -4 14 -7 18 -7z m48 -15 c0 -5 -5
-10 -11 -10 -5 0 -7 5 -4 10 3 6 8 10 11 10 2 0 4 -4 4 -10z m10493 -17
c-1684 -2 -4442 -2 -6130 0 -1687 1 -309 2 3062 2 3372 0 4752 -1 3068 -2z
m-9613 -13 c0 -5 -5 -10 -11 -10 -5 0 -7 5 -4 10 3 6 8 10 11 10 2 0 4 -4 4
-10z m225 -8 c-3 -3 -11 0 -18 7 -9 10 -8 11 6 5 10 -3 15 -9 12 -12z m83 11
c-10 -2 -26 -2 -35 0 -10 3 -2 5 17 5 19 0 27 -2 18 -5z m-1332 -32 c0 -11 -5
-17 -14 -14 -7 3 -12 0 -10 -7 2 -7 -5 -14 -16 -15 -15 -3 -13 2 10 26 15 16
28 29 29 29 0 0 1 -8 1 -19z m1104 9 c0 -5 -4 -10 -9 -10 -6 0 -13 5 -16 10
-3 6 1 10 9 10 9 0 16 -4 16 -10z m-51 -14 c9 -11 6 -15 -18 -18 -17 -2 -28
-1 -25 4 3 4 13 8 22 8 15 0 15 2 2 10 -8 5 -10 10 -4 10 6 0 17 -6 23 -14z
m-104 -46 c-3 -5 -11 -10 -16 -10 -6 0 -7 5 -4 10 3 6 11 10 16 10 6 0 7 -4 4
-10z m-72 -7 c-7 -2 -21 -2 -30 0 -10 3 -4 5 12 5 17 0 24 -2 18 -5z m-953
-16 c0 -7 -7 -22 -15 -33 -15 -18 -15 -18 -8 0 5 14 3 17 -7 11 -9 -5 -11 -4
-6 4 4 6 12 9 17 6 5 -4 9 1 9 9 0 9 2 16 5 16 3 0 5 -6 5 -13z m990 9 c0 -2
-13 -9 -30 -15 -35 -12 -41 -5 -7 9 25 10 37 12 37 6z m-70 -31 c0 -1 -8 -5
-18 -7 -11 -3 -19 0 -19 7 0 7 8 10 19 7 10 -2 18 -6 18 -7z m-970 -36 c-7
-11 -14 -18 -17 -15 -3 3 0 12 7 21 18 21 23 19 10 -6z m867 -4 c0 -8 -4 -12
-8 -10 -3 3 -12 -2 -19 -10 -15 -18 -87 -61 -73 -43 6 7 9 23 7 36 -3 17 1 22
19 21 20 0 20 -1 3 -8 -18 -7 -18 -8 -2 -14 11 -4 26 2 44 18 32 30 29 28 29
10z m43 11 c0 -2 -7 -7 -16 -10 -8 -3 -12 -2 -9 4 6 10 25 14 25 6z m-905 -52
c-8 -16 -15 -23 -15 -16 0 17 20 55 26 49 2 -2 -2 -17 -11 -33z m-28 -4 c-1
-10 -4 -17 -8 -14 -4 2 -10 0 -14 -6 -3 -5 -2 -10 4 -10 6 0 8 -7 4 -16 -4
-12 -8 -11 -18 8 -13 25 -1 53 18 41 6 -4 8 0 4 11 -4 9 -3 15 2 11 6 -3 9
-14 8 -25z m53 -10 c0 -5 -2 -10 -4 -10 -3 0 -8 5 -11 10 -3 6 -1 10 4 10 6 0
11 -4 11 -10z m641 -28 c-7 -2 -18 1 -23 6 -8 8 -4 9 13 5 13 -4 18 -8 10 -11z
m74 -2 c-3 -5 -13 -6 -21 -3 -12 4 -13 8 -3 14 15 9 32 2 24 -11z m-812 -4 c4
-10 1 -13 -8 -9 -8 3 -12 9 -9 14 7 12 11 11 17 -5z m707 -6 c0 -5 -4 -10 -10
-10 -5 0 -10 5 -10 10 0 6 5 10 10 10 6 0 10 -4 10 -10z m57 -5 c0 -8 -11 -25
-25 -37 l-25 -23 12 23 c13 24 3 30 -17 10 -8 -8 -12 -8 -12 -1 0 14 26 24 45
16 9 -3 15 -2 14 3 -2 12 0 24 4 24 2 0 4 -7 4 -15z m-797 -19 c0 -2 -8 -10
-17 -17 -16 -13 -17 -12 -4 4 13 16 21 21 21 13z m30 0 c0 -2 -7 -9 -15 -16
-13 -11 -14 -10 -9 4 5 14 24 23 24 12z m20 -16 c0 -5 -5 -10 -11 -10 -5 0 -7
5 -4 10 3 6 8 10 11 10 2 0 4 -4 4 -10z m679 -13 c8 -11 6 -18 -12 -33 -12
-10 -19 -15 -15 -10 4 5 3 15 -3 23 -9 10 -8 13 5 13 10 0 14 5 11 10 -9 15 1
12 14 -3z m-59 -12 c0 -8 4 -15 9 -15 5 0 8 -7 7 -15 -1 -9 -5 -15 -9 -15 -4
0 -13 0 -19 0 -9 0 -8 3 2 10 8 5 11 12 7 16 -3 4 -15 1 -24 -7 -17 -13 -17
-13 0 7 9 11 14 24 10 27 -3 4 -1 7 5 7 7 0 12 -7 12 -15z m-684 -30 c-4 -38
-12 -39 -12 -1 0 19 4 32 8 30 3 -2 5 -16 4 -29z m-34 -13 c3 -11 0 -19 -8
-19 -16 0 -16 0 -8 21 8 21 11 20 16 -2z m697 -39 c-9 -10 -15 -11 -23 -3 -16
16 -30 12 -16 -5 10 -13 11 -18 1 -28 -7 -7 -12 -7 -11 -2 4 20 -1 30 -8 17
-7 -10 -12 -8 -26 7 -14 16 -15 19 -2 24 10 4 13 1 9 -9 -3 -7 -1 -14 5 -14 5
0 13 7 16 15 3 9 14 15 23 13 11 -2 17 2 15 11 -3 12 0 12 13 1 12 -10 13 -16
4 -27z m-744 -51 c1 -12 -6 -18 -19 -19 -12 -1 -15 1 -8 4 6 3 12 14 12 26 0
24 13 15 15 -11z m665 -7 c0 -5 -5 -3 -10 5 -5 8 -10 20 -10 25 0 6 5 3 10 -5
5 -8 10 -19 10 -25z m-85 -15 c-9 -14 8 -13 23 2 8 8 12 9 12 1 0 -6 -6 -13
-12 -16 -9 -3 -7 -9 6 -20 19 -14 19 -15 -7 -47 -15 -17 -27 -28 -27 -23 0 5
6 15 13 22 10 10 9 14 -5 22 -10 6 -18 15 -18 21 0 6 9 3 20 -7 11 -10 23 -15
27 -12 3 4 -6 16 -21 28 -22 17 -28 39 -10 39 3 0 2 -4 -1 -10z m66 -32 c-10
-11 -11 -9 -5 6 6 15 4 17 -6 11 -9 -6 -11 -4 -5 4 5 9 10 10 18 2 8 -8 7 -14
-2 -23z m-676 0 c5 -4 0 -6 -12 -6 -13 1 -19 7 -16 15 3 8 8 10 12 6 3 -4 10
-11 16 -15z m-15 -24 c0 -8 -19 -13 -24 -6 -3 5 1 9 9 9 8 0 15 -2 15 -3z
m570 -18 c0 -3 -4 -8 -10 -11 -5 -3 -10 -1 -10 4 0 6 5 11 10 11 6 0 10 -2 10
-4z m-613 -28 c-2 -7 0 -21 5 -32 7 -12 7 -16 0 -12 -16 9 -53 -59 -39 -73 8
-8 8 -11 0 -11 -22 0 -24 19 -6 52 9 18 16 37 15 41 -1 5 2 5 8 2 6 -4 11 -1
9 6 -2 22 0 39 7 39 3 0 4 -6 1 -12z m659 -20 c4 -7 3 -8 -5 -4 -6 4 -18 2
-26 -4 -9 -8 -15 -8 -15 -2 0 9 15 19 32 21 4 1 10 -4 14 -11z m12914 -298 l0
-300 -5100 0 -5100 0 0 -300 0 -300 5100 0 5100 0 0 -300 0 -300 -5884 0
c-5218 0 -5893 2 -5971 15 -220 39 -423 162 -557 339 -365 483 -170 1169 394
1386 162 63 -317 58 6126 59 l5892 1 0 -300z m-12945 260 c3 -6 -1 -7 -9 -4
-18 7 -21 14 -7 14 6 0 13 -4 16 -10z m-629 -39 c1 -23 -2 -26 -11 -18 -9 8
-10 18 -4 30 13 23 14 22 15 -12z m608 21 c3 -5 -1 -9 -9 -9 -8 0 -12 4 -9 9
3 4 7 8 9 8 2 0 6 -4 9 -8z m-21 -37 c4 -8 3 -16 -1 -19 -4 -3 -9 4 -9 15 -2
23 3 25 10 4z m-22 -39 c5 3 -5 -22 -22 -56 -22 -41 -35 -57 -41 -48 -4 7 -8
18 -8 23 0 6 4 4 9 -4 6 -10 12 -4 21 23 6 20 16 36 21 36 6 0 8 10 5 23 -3
12 -3 16 0 9 3 -6 10 -9 15 -6z m-631 -21 c0 -8 -4 -15 -10 -15 -5 0 -7 7 -4
15 4 8 8 15 10 15 2 0 4 -7 4 -15z m574 -1 c3 -8 2 -12 -4 -9 -6 3 -10 10 -10
16 0 14 7 11 14 -7z m-591 -44 c-3 -11 -10 -23 -16 -27 -5 -3 -8 -2 -5 3 3 5
8 17 11 27 9 24 16 22 10 -3z m1 -69 c-4 -18 -11 -28 -15 -24 -5 5 -4 21 3 35
16 34 20 30 12 -11z m580 -15 c-5 -14 -9 -15 -16 -4 -7 9 -8 7 -5 -9 6 -25 -8
-32 -16 -9 -6 16 16 40 26 29 4 -3 7 0 7 7 0 7 2 11 5 8 3 -3 2 -13 -1 -22z
m-54 -9 c0 -7 -4 -6 -10 3 -8 13 -10 12 -10 -4 0 -11 -3 -17 -6 -13 -4 3 -4
13 0 22 6 18 26 11 26 -8z m-563 -22 c-1 -19 -5 -31 -10 -26 -7 7 0 61 8 61 2
0 3 -16 2 -35z m50 -7 c-3 -8 -6 -5 -6 6 -1 11 2 17 5 13 3 -3 4 -12 1 -19z
m536 -11 c7 4 7 0 -1 -10 -8 -9 -11 -20 -9 -25 3 -4 2 -13 -2 -20 -4 -7 -7 9
-8 35 0 27 2 40 4 30 3 -10 9 -14 16 -10z m-42 -14 c-12 -20 -14 -14 -5 12 4
9 9 14 11 11 3 -2 0 -13 -6 -23z m5 -40 c-4 -9 -3 -19 2 -22 4 -3 3 -17 -4
-30 -11 -22 -12 -20 -9 20 3 49 3 49 11 49 3 0 3 -8 0 -17z m-577 -138 c1 -5
-4 -3 -9 5 -7 12 -11 10 -19 -10 -6 -17 -10 -19 -10 -8 -1 9 4 20 9 23 6 4 8
16 5 28 -5 19 -4 19 9 -3 9 -14 15 -29 15 -35z m534 -15 c-3 -12 -8 -19 -11
-16 -5 6 5 36 12 36 2 0 2 -9 -1 -20z m-26 -2 c0 -7 1 -22 2 -33 1 -17 3 -18
11 -5 6 9 10 10 10 3 0 -6 -5 -15 -10 -18 -12 -7 -33 42 -24 56 7 13 12 11 11
-3z m-520 -20 c-3 -8 -6 -5 -6 6 -1 11 2 17 5 13 3 -3 4 -12 1 -19z m-20 -70
c-3 -8 -6 -5 -6 6 -1 11 2 17 5 13 3 -3 4 -12 1 -19z m558 -9 c4 -17 4 -33 1
-36 -3 -4 -6 3 -6 15 0 11 -7 28 -16 36 -13 14 -13 16 -1 16 9 0 18 -13 22
-31z m-538 -41 c-3 -7 -5 -2 -5 12 0 14 2 19 5 13 2 -7 2 -19 0 -25z m-36 -14
c-9 -28 -9 -29 -10 -3 -1 14 2 29 6 32 11 12 13 2 4 -29z m563 -37 c4 -29 2
-35 -7 -25 -7 6 -11 24 -9 40 6 36 10 32 16 -15z m-27 11 c-3 -8 -6 -5 -6 6
-1 11 2 17 5 13 3 -3 4 -12 1 -19z m-518 -51 c-1 -20 -2 -20 -9 3 -4 14 -9 21
-10 15 -1 -5 -4 -23 -6 -40 -7 -39 -14 -45 -14 -11 0 34 18 69 31 61 5 -4 9
-16 8 -28z m11 -64 c-11 -17 -11 -17 -6 0 3 10 7 28 7 40 2 22 2 22 6 0 2 -12
-1 -30 -7 -40z m527 -65 c-2 -24 -4 -5 -4 42 0 47 2 66 4 43 2 -24 2 -62 0
-85z m-550 80 c-3 -8 -6 -5 -6 6 -1 11 2 17 5 13 3 -3 4 -12 1 -19z m20 -75
c-3 -10 -5 -4 -5 12 0 17 2 24 5 18 2 -7 2 -21 0 -30z m-40 -50 c-2 -16 -4 -5
-4 22 0 28 2 40 4 28 2 -13 2 -35 0 -50z m49 -41 c-11 -10 -15 4 -8 28 l7 25
3 -23 c2 -13 1 -26 -2 -30z m501 11 c-3 -10 -5 -4 -5 12 0 17 2 24 5 18 2 -7
2 -21 0 -30z m20 -5 c-3 -7 -5 -2 -5 12 0 14 2 19 5 13 2 -7 2 -19 0 -25z
m-558 -58 c0 -9 -4 -8 -9 5 -5 11 -9 27 -9 35 0 9 4 8 9 -5 5 -11 9 -27 9 -35z
m562 26 c5 3 9 0 9 -5 0 -6 -5 -11 -10 -11 -7 0 -7 -6 -1 -18 6 -11 6 -24 0
-33 -7 -12 -9 -11 -9 2 0 9 -2 32 -5 50 -3 19 -3 28 1 21 3 -6 10 -10 15 -6z
m-551 -71 c-7 -25 -15 -43 -18 -41 -2 3 2 25 9 50 7 25 15 43 17 41 3 -2 -1
-25 -8 -50z m37 13 c-3 -8 -6 -5 -6 6 -1 11 2 17 5 13 3 -3 4 -12 1 -19z m513
-48 c0 -5 -5 -10 -11 -10 -5 0 -7 5 -4 10 3 6 8 10 11 10 2 0 4 -4 4 -10z
m-547 -35 c-3 -9 -8 -14 -10 -11 -3 3 -2 9 2 15 9 16 15 13 8 -4z m563 -29
c-4 -19 -10 -37 -14 -40 -5 -3 -3 15 2 39 12 52 21 52 12 1z m-29 -8 c-3 -8
-6 -5 -6 6 -1 11 2 17 5 13 3 -3 4 -12 1 -19z m-527 -14 c0 -8 -4 -12 -10 -9
-5 3 -10 10 -10 16 0 5 5 9 10 9 6 0 10 -7 10 -16z m517 -41 c-3 -10 -5 -4 -5
12 0 17 2 24 5 18 2 -7 2 -21 0 -30z m58 17 c-4 -6 -1 -18 6 -26 6 -8 9 -17 6
-20 -8 -9 -29 35 -22 46 3 6 8 10 11 10 3 0 2 -5 -1 -10z m-567 -30 c0 -17 -4
-28 -9 -25 -11 8 -12 55 -1 55 5 0 9 -14 10 -30z m536 5 c3 -8 1 -15 -4 -15
-6 0 -10 7 -10 15 0 8 2 15 4 15 2 0 6 -7 10 -15z m16 -40 c0 -8 -2 -15 -4
-15 -2 0 -6 7 -10 15 -3 8 -1 15 4 15 6 0 10 -7 10 -15z m43 -35 c4 -14 2 -31
-2 -39 -7 -10 -9 -7 -8 10 1 13 -3 35 -7 49 -5 16 -5 22 2 15 5 -5 12 -21 15
-35z m-586 -32 c-3 -8 -6 -5 -6 6 -1 11 2 17 5 13 3 -3 4 -12 1 -19z m10 -50
c-3 -8 -6 -5 -6 6 -1 11 2 17 5 13 3 -3 4 -12 1 -19z m612 -24 c18 -49 10 -51
-11 -3 -9 21 -13 39 -9 39 4 0 13 -16 20 -36z m-569 -4 c0 -5 -9 -10 -20 -10
-11 0 -20 5 -20 10 0 6 9 10 20 10 11 0 20 -4 20 -10z m559 -45 c0 -5 -4 -3
-9 5 -8 13 -10 12 -10 -2 0 -10 -4 -18 -9 -18 -5 0 -4 14 2 30 10 26 13 28 19
13 3 -10 7 -22 7 -28z m-565 -35 c5 -17 4 -20 -2 -10 -5 8 -13 26 -16 40 -5
17 -4 20 2 10 5 -8 13 -26 16 -40z m43 18 c-3 -8 -6 -5 -6 6 -1 11 2 17 5 13
3 -3 4 -12 1 -19z m560 -22 c-4 -9 -12 -16 -19 -16 -10 0 -9 3 1 9 9 6 11 16
7 27 -6 15 -4 16 5 7 6 -6 9 -19 6 -27z m-66 -9 c-10 -9 -11 -8 -5 6 3 10 9
15 12 12 3 -3 0 -11 -7 -18z m-497 -47 c-7 -6 -24 22 -23 40 0 9 6 5 14 -10 7
-14 11 -27 9 -30z m632 -77 c-3 -3 -10 7 -16 23 -10 26 -12 27 -22 11 -5 -11
-7 -33 -4 -50 5 -30 5 -31 -9 -13 -8 10 -12 23 -9 28 11 17 14 89 4 83 -11 -7
-14 8 -3 18 3 4 19 -16 35 -44 16 -28 27 -53 24 -56z m-646 52 c0 -5 -5 -3
-10 5 -5 8 -10 20 -10 25 0 6 5 3 10 -5 5 -8 10 -19 10 -25z m90 -29 c0 -3 -4
-8 -10 -11 -5 -3 -10 -1 -10 4 0 6 5 11 10 11 6 0 10 -2 10 -4z m-35 -16 c3
-5 2 -10 -4 -10 -5 0 -13 5 -16 10 -3 6 -2 10 4 10 5 0 13 -4 16 -10z m604
-25 c13 5 14 4 3 -7 -16 -16 -45 0 -50 28 -3 16 -1 15 13 -4 11 -15 23 -21 34
-17z m-565 -9 c-6 -15 -24 -23 -24 -11 0 8 24 34 28 30 1 -1 0 -10 -4 -19z
m-38 -23 c-3 -7 -1 -15 4 -18 6 -4 10 -16 9 -28 0 -16 -5 -11 -16 18 -9 22
-20 42 -25 43 -4 2 -8 8 -8 13 0 5 9 4 20 -3 11 -7 18 -18 16 -25z m40 -23 c0
-12 -4 -16 -9 -11 -5 5 -6 14 -3 20 10 15 12 14 12 -9z m606 -4 c7 -13 5 -23
-8 -37 -9 -10 -20 -17 -22 -14 -10 10 -9 44 1 42 5 -1 12 4 15 12 2 8 0 11 -6
7 -6 -3 -13 -2 -16 3 -4 5 1 8 10 7 9 -1 21 -10 26 -20z m38 -51 c10 -14 10
-17 1 -8 -7 6 -21 9 -29 5 -14 -5 -15 -4 -2 10 8 9 15 15 15 14 1 0 7 -10 15
-21z m-640 6 c0 -6 -4 -12 -8 -15 -5 -3 -9 1 -9 9 0 8 4 15 9 15 4 0 8 -4 8
-9z m661 -54 c-17 -17 -13 -27 7 -20 18 6 17 5 -8 -14 -13 -10 -16 -8 -17 7
-1 11 3 22 8 25 5 4 6 11 3 17 -5 7 -2 8 5 3 9 -5 10 -10 2 -18z m-608 -46
c-4 -3 -10 -9 -13 -12 -3 -4 -10 -1 -17 6 -9 10 -6 13 13 13 14 0 21 -3 17 -7z
m667 -24 c0 -4 -9 -3 -20 3 -11 6 -20 15 -20 20 0 6 9 5 20 -2 11 -7 20 -16
20 -21z m-670 -17 c0 -5 -2 -10 -4 -10 -3 0 -8 5 -11 10 -3 6 -1 10 4 10 6 0
11 -4 11 -10z m682 -2 c-18 -18 -14 -32 5 -17 15 13 15 12 2 -8 -11 -19 -15
-20 -22 -7 -8 14 7 44 21 44 3 0 1 -5 -6 -12z m-32 -8 c0 -5 -4 -10 -10 -10
-5 0 -10 5 -10 10 0 6 5 10 10 10 6 0 10 -4 10 -10z m178 -128 c-3 -2 -31 22
-61 52 -30 31 -58 52 -62 48 -5 -4 -5 -1 -1 6 6 10 25 -3 70 -45 33 -32 58
-59 54 -61z m-800 73 c-3 -3 -9 2 -12 12 -6 14 -5 15 5 6 7 -7 10 -15 7 -18z
m692 0 c20 -24 6 -28 -15 -5 -10 11 -13 20 -8 20 6 0 16 -7 23 -15z m-646 -11
c9 -24 2 -26 -12 -4 -7 11 -8 20 -3 20 5 0 12 -7 15 -16z m24 -19 c-3 -14 -1
-28 3 -31 5 -3 9 -10 9 -17 0 -6 -6 -3 -13 7 -12 17 -12 66 0 66 3 0 3 -11 1
-25z m602 10 c7 -8 8 -15 2 -15 -5 0 -15 7 -22 15 -7 8 -8 15 -2 15 5 0 15 -7
22 -15z m-640 -16 c0 -6 12 -27 26 -47 l26 -37 -30 34 c-29 31 -50 77 -31 65
5 -3 9 -10 9 -15z m750 -67 c-12 -4 -50 26 -50 40 0 5 14 -2 31 -14 16 -12 25
-24 19 -26z m55 -12 c3 -5 1 -10 -4 -10 -6 0 -11 5 -11 10 0 6 2 10 4 10 3 0
8 -4 11 -10z m-679 -22 c3 -4 1 -15 -5 -25 -6 -11 -11 -13 -11 -5 0 7 -5 10
-10 7 -6 -4 -7 -12 -4 -18 4 -7 -1 -4 -11 5 -22 20 -13 49 14 45 11 -2 23 -6
27 -9z m775 -41 c-14 -14 -50 10 -48 32 1 18 2 18 29 -2 17 -12 24 -25 19 -30z
m-778 -30 c-3 -5 4 -6 18 -2 13 3 20 3 14 -2 -5 -5 -13 -12 -16 -16 -3 -4 -13
1 -22 11 -14 15 -15 19 -2 19 8 0 12 -5 8 -10z m867 -17 c0 -5 -2 -10 -4 -10
-3 0 -8 5 -11 10 -3 6 -1 10 4 10 6 0 11 -4 11 -10z m-827 -20 c-3 -11 0 -20
6 -20 6 0 11 5 11 10 0 6 5 10 11 10 8 0 7 -5 -1 -15 -7 -9 -10 -19 -6 -22 4
-4 11 -1 16 7 6 9 10 10 10 3 0 -6 -4 -14 -10 -18 -10 -6 18 -45 33 -45 5 0 4
7 -3 15 -16 19 -6 30 25 30 16 1 21 -3 17 -14 -4 -10 -1 -12 8 -6 8 5 11 4 6
-3 -4 -6 -13 -9 -20 -6 -18 7 -29 -25 -16 -41 7 -8 25 -12 43 -9 18 2 26 0 20
-4 -9 -6 -8 -11 6 -22 11 -7 17 -18 15 -24 -2 -6 3 -20 11 -30 12 -15 17 -17
29 -7 15 13 36 7 36 -10 0 -5 -5 -9 -11 -9 -5 0 -7 5 -4 10 9 14 -9 12 -23 -2
-10 -10 -18 -7 -38 15 -14 15 -23 31 -20 36 8 12 -20 34 -33 27 -10 -7 -131
121 -131 139 0 10 9 25 16 25 1 0 0 -9 -3 -20z m861 -2 c-5 -8 -1 -9 12 -4 14
5 16 4 8 -4 -6 -6 -19 -8 -28 -4 -14 5 -15 9 -4 15 18 12 20 11 12 -3z m72
-35 c-6 -6 -36 9 -36 18 0 5 9 4 20 -3 10 -7 18 -14 16 -15z m34 -38 c0 -12
-19 -12 -23 0 -4 9 -1 12 9 8 7 -3 14 -7 14 -8z m106 -32 c-15 -8 -30 -12 -34
-9 -3 3 0 6 7 6 7 0 11 6 8 13 -4 10 2 13 20 9 l26 -5 -27 -14z m-952 5 c-3
-4 -9 -8 -15 -8 -5 0 -9 4 -9 8 0 5 7 9 15 9 8 0 12 -4 9 -9z m911 2 c-3 -5
-21 -9 -38 -9 l-32 1 30 8 c43 11 47 11 40 0z m-840 -40 c3 -5 2 -10 -4 -10
-5 0 -13 5 -16 10 -3 6 -2 10 4 10 5 0 13 -4 16 -10z m1050 1 l30 -7 -27 -6
c-16 -3 -28 -2 -28 3 0 4 -12 10 -27 12 -26 4 -26 4 -3 4 14 0 39 -2 55 -6z
m105 -21 l25 -8 -25 -2 c-22 -1 -23 -2 -6 -9 19 -7 19 -8 -2 -13 -12 -4 -20
-2 -16 3 3 5 -3 9 -13 10 -16 0 -16 1 2 9 18 8 18 9 2 9 -10 1 -32 -6 -48 -15
-17 -8 -33 -13 -36 -10 -7 6 57 34 77 34 8 0 26 -4 40 -8z m-1144 -20 c0 -12
-4 -16 -9 -11 -5 5 -6 14 -3 20 10 15 12 14 12 -9z m1228 -5 c25 -19 17 -19
-25 0 -24 10 -28 14 -14 14 11 0 29 -6 39 -14z m9318 -2 c-1691 -2 -4454 -2
-6140 0 -1687 1 -304 2 3073 2 3377 0 4757 -1 3067 -2z m3123 -15 c3 -13 4
-144 3 -293 l-3 -270 -3 283 -2 283 -22 9 -23 9 22 0 c15 1 24 -6 28 -21z
m-28 -420 c-1 -79 -3 -15 -3 142 0 157 2 221 3 143 2 -79 2 -207 0 -285z
m-13564 388 c4 -10 1 -13 -8 -9 -8 3 -12 9 -9 14 7 12 11 11 17 -5z m-38 -24
c-3 -3 -11 0 -18 7 -9 10 -8 11 6 5 10 -3 15 -9 12 -12z m31 -18 c-4 -11 -2
-15 8 -11 7 3 18 1 24 -5 7 -7 16 -6 30 1 30 16 37 -4 10 -24 -21 -14 -24 -14
-35 2 -7 9 -13 13 -13 9 0 -4 -8 -3 -17 2 -18 11 -27 42 -11 42 6 0 7 -7 4
-16z m88 -75 c-3 -5 -10 -7 -15 -3 -5 3 -7 10 -3 15 3 5 10 7 15 3 5 -3 7 -10
3 -15z m53 -23 c-1 -5 4 -11 11 -13 7 -3 11 1 10 7 -2 7 3 14 10 16 7 1 8 0 2
-3 -5 -2 -7 -9 -4 -14 3 -6 11 -5 20 2 12 10 13 9 8 -5 -3 -9 -11 -16 -18 -16
-6 0 -4 -5 4 -10 8 -5 12 -10 7 -10 -8 0 -49 22 -57 31 -3 3 -14 11 -25 16
-17 10 -17 11 7 10 15 -1 26 -6 25 -11z m87 -2 c3 -8 2 -12 -4 -9 -6 3 -10 10
-10 16 0 14 7 11 14 -7z m6 -39 c7 -8 8 -15 2 -15 -5 0 -15 7 -22 15 -7 8 -8
15 -2 15 5 0 15 -7 22 -15z m-9 -32 c13 -17 13 -17 -6 -3 -11 8 -22 16 -24 17
-2 2 0 3 6 3 6 0 17 -8 24 -17z m89 -6 c17 -1 24 -57 8 -57 -5 0 -6 5 -2 12 5
7 2 9 -8 6 -8 -4 -21 -2 -29 3 -12 8 -12 10 1 8 8 -1 22 -1 30 0 13 1 13 3 1
10 -8 5 -27 8 -41 6 -17 -2 -27 2 -27 10 0 8 9 11 26 8 14 -2 33 -5 41 -6z
m65 -77 c3 -6 -1 -7 -9 -4 -18 7 -21 14 -7 14 6 0 13 -4 16 -10z m39 -14 c-3
-9 -10 -13 -15 -10 -5 3 -3 11 4 19 15 16 19 13 11 -9z m53 8 c-3 -3 -12 -4
-19 -1 -8 3 -5 6 6 6 11 1 17 -2 13 -5z m20 -13 c-1 -13 -7 -17 -22 -14 -17 4
-16 2 5 -11 30 -18 21 -21 -14 -5 -28 13 -25 29 5 29 10 0 19 5 19 10 0 6 2
10 4 10 3 0 4 -8 3 -19z m190 -76 c17 -3 38 -13 45 -22 12 -14 9 -14 -19 0
-35 19 -60 22 -65 8 -1 -4 -19 -2 -38 5 l-35 14 35 -6 c27 -4 32 -3 20 6 -13
9 -12 10 5 6 11 -2 34 -7 52 -11z m4 -33 c-7 -2 -18 1 -23 6 -8 8 -4 9 13 5
13 -4 18 -8 10 -11z m182 -29 c-7 -2 -19 -2 -25 0 -7 3 -2 5 12 5 14 0 19 -2
13 -5z m126 -10 c-18 -7 -40 -12 -48 -10 -9 3 -5 6 9 7 23 1 23 2 5 9 -14 6
-8 8 24 8 l44 0 -34 -14z m-126 -10 c-7 -2 -19 -2 -25 0 -7 3 -2 5 12 5 14 0
19 -2 13 -5z m167 -3 c0 -5 -8 -10 -17 -10 -15 0 -16 2 -3 10 19 12 20 12 20
0z m93 3 c-7 -2 -19 -2 -25 0 -7 3 -2 5 12 5 14 0 19 -2 13 -5z m-113 -23 c20
-6 21 -8 5 -8 -11 0 -29 3 -40 8 -25 11 1 11 35 0z m127 4 c-3 -3 -12 -4 -19
-1 -8 3 -5 6 6 6 11 1 17 -2 13 -5z m-44 -21 c-7 -2 -19 -2 -25 0 -7 3 -2 5
12 5 14 0 19 -2 13 -5z m10997 -6 c800 -1 -1330 -3 -4733 -5 -3404 -1 -6186 1
-6184 6 5 6 7074 6 10917 -1z m1872 -644 c269 -46 466 -108 693 -218 627 -305
1104 -885 1275 -1551 52 -205 73 -373 73 -599 1 -410 -88 -774 -275 -1125
-313 -590 -873 -1033 -1513 -1198 -285 -73 -408 -82 -1181 -82 l-624 0 0 299
0 300 718 4 c755 4 746 4 932 52 323 84 614 255 850 501 327 341 500 771 500
1244 0 498 -192 948 -552 1297 -277 267 -613 431 -999 488 -95 13 -869 15
-7378 15 l-7271 0 0 300 0 300 7313 -3 7312 -3 127 -21z m-109 -1196 c176 -44
317 -106 444 -196 250 -177 419 -433 490 -743 23 -103 23 -375 0 -476 -98
-428 -395 -764 -791 -897 -177 -60 -154 -58 -898 -62 l-688 -4 0 450 0 451
600 0 600 0 0 300 0 300 -6900 0 -6900 0 0 450 0 450 6988 -3 c6561 -3 6991
-4 7055 -20z m-4443 -1927 l0 -450 -4800 0 -4800 0 0 450 0 450 4800 0 4800 0
0 -450z m0 -1350 l0 -300 -5100 0 -5100 0 0 300 0 300 5100 0 5100 0 0 -300z"/>
<path d="M3600 10650 l0 -300 300 0 300 0 0 300 0 300 -300 0 -300 0 0 -300z"/>
<path d="M2020 9790 c-6 -11 -8 -20 -6 -20 3 0 10 9 16 20 6 11 8 20 6 20 -3
0 -10 -9 -16 -20z"/>
<path d="M1630 9414 c0 -8 5 -12 10 -9 6 3 10 10 10 16 0 5 -4 9 -10 9 -5 0
-10 -7 -10 -16z"/>
<path d="M2410 9411 c0 -5 7 -12 16 -15 14 -5 15 -4 4 9 -14 17 -20 19 -20 6z"/>
<path d="M1785 9260 c3 -5 8 -10 11 -10 2 0 4 5 4 10 0 6 -5 10 -11 10 -5 0
-7 -4 -4 -10z"/>
<path d="M2044 9014 c-18 -14 -18 -15 4 -4 12 6 22 13 22 15 0 8 -5 6 -26 -11z"/>
</g>
</svg>
